PathFileType	4	(X/Y/Z)	c:/Users/goper/Files/vsCode/490R/osim_files/C08/C08_Slow_01.trc
DataRate	CameraRate	NumFrames	NumMarkers	Units                	OrigDataRate	OrigDataStartFrame	OrigNumFrames
250.00	250.00	5	36	mm	250.0	2103	2803
                Frame#	Time	LPSIS			LASIS			LTH1			LTH2			LTH3			LTH4			LLFE			LMFE			LSH1			LSH2			LSH3			LSH4			LLMAL			LMMAL			LCAL			LMTP5			LTOE			LMTP1			RPSIS			RASIS			RTH1			RTH2			RTH3			RTH4			RLFE			RMFE			RSH1			RSH2			RSH3			RSH4			RLMAL			RMMAL			RCAL			RMTP1			RTOE			RMTP5		
		X1	Y1	Z1	X2	Y2	Z2	X3	Y3	Z3	X4	Y4	Z4	X5	Y5	Z5	X6	Y6	Z6	X7	Y7	Z7	X8	Y8	Z8	X9	Y9	Z9	X10	Y10	Z10	X11	Y11	Z11	X12	Y12	Z12	X13	Y13	Z13	X14	Y14	Z14	X15	Y15	Z15	X16	Y16	Z16	X17	Y17	Z17	X18	Y18	Z18	X19	Y19	Z19	X20	Y20	Z20	X21	Y21	Z21	X22	Y22	Z22	X23	Y23	Z23	X24	Y24	Z24	X25	Y25	Z25	X26	Y26	Z26	X27	Y27	Z27	X28	Y28	Z28	X29	Y29	Z29	X30	Y30	Z30	X31	Y31	Z31	X32	Y32	Z32	X33	Y33	Z33	X34	Y34	Z34	X35	Y35	Z35	X36	Y36	Z36

2103	8.40800	-995.76862	1033.71887	194.44427	-1194.33569	995.51190	46.58277	-1059.93445	727.30078	351.46161	-1041.58740	653.23499	330.84116	-1026.09009	582.32587	322.11414	-1119.30847	645.25012	310.94308	-1012.37738	533.80615	313.22876	-1013.31976	524.27173	183.49042	-923.39929	426.07773	323.88699	-914.10846	379.63095	322.74841	-982.64996	410.46857	320.04996	-965.88263	367.93607	318.28607	-839.33435	115.65836	267.24081	-860.25293	120.90963	177.17235	-769.50378	100.33079	212.67982	-942.01581	43.68230	297.54623	-1005.72235	54.49246	236.87222	-968.69495	41.66320	185.16499	-996.71869	1027.83887	134.94525	-1200.01526	991.79126	284.82874	-1188.76343	733.94763	-25.12407	-1217.01111	660.48517	-12.39886	-1243.42651	585.83899	-1.84468	-1286.72156	688.46228	10.79917	-1276.34875	526.63019	11.56685	-1286.91150	516.28040	138.44150	-1252.60901	433.03995	-4.38684	-1273.17212	393.75729	-11.80338	-1309.84302	455.01849	-1.45939	-1323.42249	412.85278	-8.70785	-1392.99219	108.87898	30.18920	-1421.92029	126.22449	114.89962	-1351.18652	63.97597	102.21884	-1558.93799	120.48558	96.18415	-1561.54211	143.02016	40.91161	-1525.31262	96.84929	-14.60133
2104	8.41200	-1000.58612	1033.21448	193.69649	-1199.30811	995.03528	46.09850	-1064.59790	727.09857	351.23099	-1045.61084	653.06195	330.56003	-1030.06970	582.17114	321.89096	-1123.35437	644.88531	310.79440	-1016.15808	533.75153	313.01538	-1017.31049	524.02582	183.32912	-926.26813	426.45282	323.95023	-916.93134	380.18576	322.65646	-985.72028	410.48380	319.93942	-968.64148	368.10654	318.22678	-840.10657	116.61665	267.40170	-861.07538	121.76651	177.37253	-770.14526	101.88596	212.86061	-942.23596	43.70413	297.65106	-1005.96552	54.43887	236.91322	-968.65125	41.50771	185.44997	-1001.50458	1027.28516	134.22888	-1205.70703	991.83496	285.11307	-1194.10791	733.85327	-25.40830	-1222.36023	660.40503	-12.61707	-1248.69727	585.75531	-1.95396	-1291.92859	688.47888	10.78175	-1281.35034	526.41034	11.31667	-1292.28064	516.35443	138.28648	-1257.43774	432.61420	-4.45333	-1277.97595	393.11957	-11.84079	-1314.66724	454.42694	-1.62311	-1327.93823	412.38437	-9.04521	-1396.34924	108.19588	30.40854	-1425.45508	125.53056	115.13415	-1354.20068	64.03358	102.47095	-1562.22546	119.12701	96.64315	-1565.04333	141.70132	41.25243	-1528.57812	95.51041	-14.16122
2105	8.41600	-1005.40729	1032.75513	192.91542	-1204.25256	994.61841	45.55977	-1068.77173	727.03009	350.80600	-1049.76001	652.92712	330.25574	-1034.06421	582.02728	321.64377	-1127.59570	644.63483	310.62335	-1020.09790	533.58362	312.81284	-1021.47119	523.76294	183.16043	-929.50604	426.88522	323.99832	-919.91687	380.64322	322.67142	-988.88971	410.50534	319.84177	-971.51550	368.29950	318.09296	-840.87561	117.59196	267.57498	-861.92383	122.62584	177.55209	-770.88867	103.48259	213.07433	-942.44562	43.74858	297.75540	-1006.16742	54.36779	236.93970	-968.76941	41.57066	185.47334	-1006.35394	1026.80383	133.46558	-1210.41174	991.50891	284.70114	-1199.47217	733.78180	-25.72641	-1227.78992	660.36676	-12.88946	-1254.43921	585.36127	-1.76338	-1297.22510	688.60388	10.79578	-1287.30347	526.45264	11.36298	-1297.79297	516.49963	138.17197	-1262.28357	432.26016	-4.53182	-1282.45044	392.75342	-11.95308	-1319.62390	453.90906	-1.80853	-1332.66272	411.74777	-9.09422	-1399.21533	107.56728	30.61228	-1428.55261	124.65176	115.43093	-1356.61780	64.08968	102.64295	-1565.14807	117.07891	97.12552	-1568.26489	139.72615	41.75812	-1531.33618	93.95057	-13.67456
2106	8.42000	-1010.20026	1032.33337	192.16986	-1209.24939	994.23431	44.96677	-1072.95825	726.89972	350.41446	-1053.96045	652.70203	329.97305	-1038.22131	581.83936	321.40497	-1131.78894	644.31512	310.41812	-1024.09277	533.51178	312.50339	-1025.64502	523.48639	182.96169	-932.91077	427.49921	323.77191	-922.90326	381.17548	322.54224	-992.18274	410.50751	319.71378	-974.34009	368.41107	318.02356	-841.64673	118.62405	267.76923	-862.83838	123.52777	177.76730	-771.60291	105.14315	213.32481	-942.63617	43.75915	297.85919	-1006.35547	54.29410	236.94711	-968.93781	41.64252	185.56247	-1011.25305	1026.32129	132.73959	-1215.11096	991.17096	284.24817	-1204.91858	733.78259	-26.05221	-1233.26685	660.36407	-13.09250	-1259.78369	585.41809	-1.92286	-1302.57825	688.79852	10.75434	-1292.58374	526.35809	11.26430	-1303.44482	516.69995	137.95741	-1267.17090	431.96997	-4.55483	-1286.87012	392.43634	-12.09031	-1324.50378	453.35690	-1.89359	-1337.33252	411.07614	-9.20297	-1401.54553	106.90663	30.81150	-1431.14734	123.53900	115.78229	-1358.41455	64.14571	102.90257	-1567.30298	113.94560	97.86597	-1571.01099	137.23137	42.32236	-1533.45850	92.12885	-13.18816
2107	8.42400	-1015.20801	1031.86377	191.40309	-1214.32031	993.86029	44.36155	-1077.27344	726.78479	349.99097	-1058.33020	652.50720	329.61700	-1042.47266	581.63654	321.14441	-1136.08704	643.94012	310.19406	-1027.93835	533.42731	312.34955	-1029.84766	523.20349	182.73933	-936.37433	428.02661	323.52930	-925.83801	381.77780	322.31198	-995.55011	410.48584	319.62158	-977.28857	368.50967	317.88095	-842.41882	119.62383	267.98465	-863.77179	124.47925	178.01254	-772.43817	106.86021	213.58307	-942.86401	43.76863	297.99149	-1006.51416	54.21045	236.97757	-969.39435	41.71345	185.80347	-1016.19904	1025.83862	132.04352	-1219.91479	990.79462	283.72626	-1210.39343	733.77399	-26.34040	-1238.79956	660.38043	-13.30521	-1265.14746	585.61688	-2.16688	-1307.97302	689.03918	10.72464	-1297.96863	526.30011	11.21438	-1309.48535	516.89008	138.08482	-1272.04578	431.70438	-4.63708	-1291.85889	391.94135	-11.89310	-1329.46741	452.82553	-1.93256	-1341.94690	410.42654	-9.15966	-1403.38525	106.14072	31.00070	-1433.20935	122.08816	116.18496	-1359.80127	64.25051	103.28748	-1569.28894	110.63181	98.38956	-1573.31580	134.32643	43.00657	-1534.98706	89.96984	-12.66691
